PathFileType	4	(X/Y/Z)	RBDS020static.trc
DataRate	CameraRate	NumFrames	NumMarkers	Units	OrigDataRate	OrigDataStartFrame	OrigNumFrames
150.000000	150.000000	4	48	mm	150.000000	0	150
Frame#	Time	L.Ankle			L.Ankle.Medial			L.ASIS			L.GTR			L.Heel.Bottom			L.Heel.Lateral			L.Heel.Top			L.HF			L.Iliac.Crest			L.Knee			L.Knee.Medial			L.MT1			L.MT2			L.MT5			L.PSIS			L.Shank.Bottom.Lateral			L.Shank.Bottom.Medial			L.Shank.Top.Lateral			L.Shank.Top.Medial			L.Thigh.Bottom.Lateral			L.Thigh.Bottom.Medial			L.Thigh.Top.Lateral			L.Thigh.Top.Medial			L.TT			R.Ankle			R.Ankle.Medial			R.ASIS			R.GTR			R.Heel.Bottom			R.Heel.Lateral			R.Heel.Top			R.HF			R.Iliac.Crest			R.Knee			R.Knee.Medial			R.MT1			R.MT2			R.MT5			R.PSIS			R.Shank.Bottom.Lateral			R.Shank.Bottom.Medial			R.Shank.Top.Lateral			R.Shank.Top.Medial			R.Thigh.Bottom.Lateral			R.Thigh.Bottom.Medial			R.Thigh.Top.Lateral			R.Thigh.Top.Medial			R.TT			
		X1	Y1	Z1	X2	Y2	Z2	X3	Y3	Z3	X4	Y4	Z4	X5	Y5	Z5	X6	Y6	Z6	X7	Y7	Z7	X8	Y8	Z8	X9	Y9	Z9	X10	Y10	Z10	X11	Y11	Z11	X12	Y12	Z12	X13	Y13	Z13	X14	Y14	Z14	X15	Y15	Z15	X16	Y16	Z16	X17	Y17	Z17	X18	Y18	Z18	X19	Y19	Z19	X20	Y20	Z20	X21	Y21	Z21	X22	Y22	Z22	X23	Y23	Z23	X24	Y24	Z24	X25	Y25	Z25	X26	Y26	Z26	X27	Y27	Z27	X28	Y28	Z28	X29	Y29	Z29	X30	Y30	Z30	X31	Y31	Z31	X32	Y32	Z32	X33	Y33	Z33	X34	Y34	Z34	X35	Y35	Z35	X36	Y36	Z36	X37	Y37	Z37	X38	Y38	Z38	X39	Y39	Z39	X40	Y40	Z40	X41	Y41	Z41	X42	Y42	Z42	X43	Y43	Z43	X44	Y44	Z44	X45	Y45	Z45	X46	Y46	Z46	X47	Y47	Z47	X48	Y48	Z48	

1	0	705.118896484375	110.4513092041016	1037.633666992188	734.6575317382813	116.6499328613281	1116.14013671875	838.7620239257813	1044.939453125	1099.083618164063	762.1159057617188	937.3012084960938	1040.858032226563	638.8306884765625	39.26165390014648	1085.91455078125	662.0121459960938	61.95175170898438	1042.453857421875	647.2546997070313	87.28872680664063	1085.591796875	759.9318237304688	481.9952697753906	1033.891967773438	772.7753295898438	1090.753784179688	1072.663330078125	757.95068359375	540.1692504882813	1045.08837890625	762.8339233398438	523.5708618164063	1155.4384765625	857.3565063476563	62.02487182617188	1118.173583984375	864.505126953125	68.91507720947266	1074.668579101563	823.5810546875	48.75862121582031	1011.373840332031	678.3783569335938	1070.501098632813	1179.81640625	713.6509399414063	186.4115600585938	1030.606323242188	675.2857666015625	189.9719848632813	1070.327880859375	711.5300903320313	266.665771484375	1022.487487792969	675.4552612304688	270.9230041503906	1062.333984375	760.4658813476563	714.5882568359375	1024.964233398438	702.4404907226563	710.2470092773438	1069.217163085938	750.523193359375	824.1402587890625	1024.847045898438	698.1563110351563	819.43798828125	1070.837280273438	810.9117431640625	448.1784973144531	1079.31494140625	703.0899047851563	106.4840621948242	1409.612426757813	728.9920654296875	119.8368835449219	1329.845581054688	850.9803466796875	1033.53125	1342.689453125	780.74169921875	938.6712036132813	1392.300537109375	633.7266235351563	40.30666351318359	1367.88427734375	660.9677124023438	57.77682113647461	1411.387451171875	641.0441284179688	82.89022827148438	1367.344970703125	742.160400390625	482.7109375	1402.442138671875	796.0664672851563	1084.92236328125	1370.81982421875	743.5714721679688	541.0480346679688	1393.192626953125	756.7910766601563	525.7510375976563	1281.470092773438	845.6019287109375	59.9677619934082	1329.503051757813	860.8699340820313	74.55237579345703	1376.42626953125	825.3853149414063	50.87929916381836	1439.617309570313	685.3211059570313	1070.865600585938	1274.188354492188	710.406982421875	203.0027618408203	1416.160034179688	669.552734375	208.3278045654297	1385.367309570313	714.0447387695313	287.6329956054688	1423.619873046875	669.588134765625	288.9319458007813	1393.516479492188	731.53076171875	677.1249389648438	1398.568237304688	685.4448852539063	675.1781005859375	1344.02001953125	726.8941650390625	787.7498779296875	1396.727783203125	684.32568359375	785.154541015625	1343.05615234375	798.1295776367188	452.3301696777344	1351.170532226563	
2	0.006666666666666667	705.1323852539063	110.4516143798828	1037.62646484375	734.6669311523438	116.6520614624023	1116.140625	838.7265625	1044.934692382813	1099.067993164063	762.0890502929688	937.2965087890625	1040.84326171875	638.8267211914063	39.26174163818359	1085.913940429688	662.01806640625	61.95068740844727	1042.45751953125	647.260986328125	87.28260040283203	1085.58056640625	759.9163208007813	481.9884033203125	1033.895874023438	772.74951171875	1090.748657226563	1072.651611328125	757.9414672851563	540.1766357421875	1045.076416015625	762.8202514648438	523.5888671875	1155.435424804688	857.3591918945313	62.03299713134766	1118.17724609375	864.5052490234375	68.91548156738281	1074.682373046875	823.5859985351563	48.76047897338867	1011.374206542969	678.3558959960938	1070.5029296875	1179.822143554688	713.648193359375	186.4031219482422	1030.617797851563	675.28759765625	189.9715881347656	1070.330810546875	711.5252075195313	266.6560974121094	1022.484985351563	675.462890625	270.9162292480469	1062.336303710938	760.4636840820313	714.5844116210938	1024.946044921875	702.4260864257813	710.2489624023438	1069.2138671875	750.4995727539063	824.1524658203125	1024.842407226563	698.125732421875	819.4356079101563	1070.825317382813	810.9006958007813	448.1844177246094	1079.3095703125	703.095947265625	106.4868545532227	1409.594848632813	729.0050659179688	119.8225631713867	1329.86083984375	850.9620361328125	1033.532958984375	1342.681274414063	780.7236328125	938.6702270507813	1392.293090820313	633.7245483398438	40.30297088623047	1367.88525390625	660.9682006835938	57.77979278564453	1411.390014648438	641.0453491210938	82.88401794433594	1367.333740234375	742.1625366210938	482.7102966308594	1402.435546875	796.0565185546875	1084.940307617188	1370.8203125	743.5811767578125	541.0348510742188	1393.166381835938	756.7807006835938	525.7604370117188	1281.46337890625	845.6016235351563	59.97951889038086	1329.497192382813	860.863525390625	74.54531860351563	1376.427612304688	825.3923950195313	50.87237548828125	1439.61669921875	685.300048828125	1070.864501953125	1274.187622070313	710.4054565429688	203.0040435791016	1416.163940429688	669.551513671875	208.3361358642578	1385.362182617188	714.0479125976563	287.6391906738281	1423.614868164063	669.5830688476563	288.9439086914063	1393.509033203125	731.5274658203125	677.139892578125	1398.55859375	685.4490356445313	675.1727905273438	1344.001586914063	726.8843383789063	787.7513427734375	1396.732788085938	684.322509765625	785.152099609375	1343.04150390625	798.13330078125	452.3261108398438	1351.164672851563	
3	0.01333333333333333	705.1283569335938	110.4649124145508	1037.62939453125	734.6644287109375	116.6599960327148	1116.146606445313	838.7123413085938	1044.950317382813	1099.046875	762.050537109375	937.304443359375	1040.83935546875	638.8282470703125	39.26407241821289	1085.916870117188	662.018310546875	61.95022583007813	1042.453491210938	647.2574462890625	87.28589630126953	1085.58544921875	759.9398803710938	481.9894714355469	1033.881103515625	772.7161254882813	1090.753173828125	1072.644165039063	757.9427490234375	540.1644897460938	1045.06591796875	762.8071899414063	523.5792236328125	1155.42529296875	857.3600463867188	62.02989196777344	1118.177001953125	864.5023803710938	68.91976928710938	1074.67138671875	823.585205078125	48.75602340698242	1011.378356933594	678.32861328125	1070.498413085938	1179.814208984375	713.6507568359375	186.4058990478516	1030.609252929688	675.2893676757813	189.9729614257813	1070.328002929688	711.52685546875	266.657470703125	1022.481994628906	675.4613647460938	270.9209899902344	1062.331665039063	760.4373779296875	714.589599609375	1024.930541992188	702.4156494140625	710.2406616210938	1069.191040039063	750.4866333007813	824.1484985351563	1024.833740234375	698.1047973632813	819.4307861328125	1070.809814453125	810.9000854492188	448.1852722167969	1079.315185546875	703.092041015625	106.4840240478516	1409.584716796875	729.0096435546875	119.8239593505859	1329.8369140625	850.9402465820313	1033.533325195313	1342.66796875	780.700927734375	938.6687622070313	1392.294799804688	633.72412109375	40.30240631103516	1367.878173828125	660.970703125	57.78577423095703	1411.389404296875	641.0474853515625	82.88523101806641	1367.336547851563	742.164794921875	482.7105102539063	1402.431030273438	796.03173828125	1084.93896484375	1370.813842773438	743.5748901367188	541.0427856445313	1393.17578125	756.7846069335938	525.7542114257813	1281.45947265625	845.597900390625	59.97763442993164	1329.490478515625	860.8762817382813	74.55362701416016	1376.429809570313	825.3892822265625	50.87346267700195	1439.609497070313	685.2781372070313	1070.85791015625	1274.188232421875	710.4063720703125	203.0001678466797	1416.1552734375	669.5487060546875	208.3302154541016	1385.362426757813	714.04541015625	287.6404724121094	1423.611938476563	669.5803833007813	288.93798828125	1393.50390625	731.5213012695313	677.1307373046875	1398.553344726563	685.4407348632813	675.1716918945313	1343.987182617188	726.8753051757813	787.7499389648438	1396.702026367188	684.314453125	785.1455688476563	1343.030395507813	798.1319580078125	452.3255920410156	1351.15283203125	
4	0.02	705.1303100585938	110.4478073120117	1037.623046875	734.6619262695313	116.6543273925781	1116.146606445313	838.6829223632813	1044.953735351563	1099.046508789063	762.0281372070313	937.2932739257813	1040.835571289063	638.8256225585938	39.25109481811523	1085.921875	662.0101928710938	61.95750427246094	1042.454956054688	647.2630615234375	87.28687286376953	1085.580322265625	759.91455078125	481.9903869628906	1033.875	772.6792602539063	1090.743408203125	1072.638671875	757.9462280273438	540.1702270507813	1045.068237304688	762.8160400390625	523.5797119140625	1155.414428710938	857.3593139648438	62.02691268920898	1118.181762695313	864.5043334960938	68.908935546875	1074.6787109375	823.5807495117188	48.75344848632813	1011.377868652344	678.3004150390625	1070.492919921875	1179.81103515625	713.6514282226563	186.4130859375	1030.607788085938	675.2874755859375	189.9727325439453	1070.323486328125	711.5281372070313	266.6571655273438	1022.476501464844	675.4542236328125	270.9228515625	1062.319702148438	760.4205932617188	714.5883178710938	1024.926635742188	702.407470703125	710.2282104492188	1069.18896484375	750.4600219726563	824.1487426757813	1024.814208984375	698.0908813476563	819.4225463867188	1070.803833007813	810.8972778320313	448.1752624511719	1079.314086914063	703.1035766601563	106.4846267700195	1409.585571289063	729.0004272460938	119.8259963989258	1329.838256835938	850.9129028320313	1033.5400390625	1342.66845703125	780.689208984375	938.6665649414063	1392.283325195313	633.7241821289063	40.3050537109375	1367.877685546875	660.970703125	57.78365707397461	1411.38671875	641.05078125	82.88713836669922	1367.330810546875	742.1618041992188	482.7137145996094	1402.417114257813	796.0200805664063	1084.930908203125	1370.809692382813	743.578125	541.0450439453125	1393.166259765625	756.7896728515625	525.7538452148438	1281.455810546875	845.5907592773438	59.97957992553711	1329.481201171875	860.8656616210938	74.55067443847656	1376.420043945313	825.3961181640625	50.87435913085938	1439.605102539063	685.2507934570313	1070.855346679688	1274.182983398438	710.4088745117188	202.9930877685547	1416.14990234375	669.555908203125	208.3282318115234	1385.355102539063	714.0536499023438	287.6372375488281	1423.618041992188	669.5842895507813	288.9351196289063	1393.504516601563	731.5137939453125	677.1235961914063	1398.540283203125	685.4408569335938	675.16455078125	1343.97265625	726.8599853515625	787.7466430664063	1396.701049804688	684.3090209960938	785.1390991210938	1343.0263671875	798.111328125	452.3186340332031	1351.151611328125	
